<?xml version="1.0" encoding="UTF-8" standalone="no"?>
<svg
   xmlns:dc="http://purl.org/dc/elements/1.1/"
   xmlns:cc="http://creativecommons.org/ns#"
   xmlns:rdf="http://www.w3.org/1999/02/22-rdf-syntax-ns#"
   xmlns:svg="http://www.w3.org/2000/svg"
   xmlns="http://www.w3.org/2000/svg"
   xmlns:sodipodi="http://sodipodi.sourceforge.net/DTD/sodipodi-0.dtd"
   xmlns:inkscape="http://www.inkscape.org/namespaces/inkscape"
   width="40.000015"
   height="39.028336"
   viewBox="0 0 10.583337 10.326247"
   version="1.1"
   id="svg8"
   inkscape:version="1.0.2 (e86c870879, 2021-01-15)"
   sodipodi:docname="logo.svg">
  <defs
     id="defs2" />
  <sodipodi:namedview
     id="base"
     pagecolor="#ffffff"
     bordercolor="#666666"
     borderopacity="1.0"
     inkscape:pageopacity="0.0"
     inkscape:pageshadow="2"
     inkscape:zoom="3.959798"
     inkscape:cx="114.55332"
     inkscape:cy="7.4708016"
     inkscape:document-units="mm"
     inkscape:current-layer="layer1"
     inkscape:document-rotation="0"
     showgrid="false"
     fit-margin-top="0"
     fit-margin-left="0"
     fit-margin-right="0"
     fit-margin-bottom="0"
     inkscape:window-width="1920"
     inkscape:window-height="1016"
     inkscape:window-x="0"
     inkscape:window-y="27"
     inkscape:window-maximized="1"
     units="px" />
  <metadata
     id="metadata5">
    <rdf:RDF>
      <cc:Work
         rdf:about="">
        <dc:format>image/svg+xml</dc:format>
        <dc:type
           rdf:resource="http://purl.org/dc/dcmitype/StillImage" />
        <dc:title></dc:title>
      </cc:Work>
    </rdf:RDF>
  </metadata>
  <g
     inkscape:label="Layer 1"
     inkscape:groupmode="layer"
     id="layer1"
     transform="translate(-19.437732,-44.246223)">
    <path
       id="path864"
       style="fill:#ffffff;fill-opacity:1;stroke-width:3.99855;stroke-linecap:round"
       d="M 25.814453 2.0097656 L 7.3457031 6.2578125 L 6.4042969 9.3300781 L 21.865234 9.3300781 L 21.865234 12.650391 L 11.513672 12.650391 L 11.513672 34.822266 L 14.701172 38.246094 L 26.164062 35.609375 C 25.696888 34.539314 25.458984 33.10305 25.458984 31.283203 L 25.458984 19.408203 L 22.822266 19.408203 L 22.822266 16.615234 L 25.458984 16.615234 L 25.458984 10.404297 L 29.072266 10.404297 L 29.072266 16.615234 L 36.474609 16.615234 L 36.474609 19.408203 L 29.072266 19.408203 L 29.072266 31.283203 C 29.072266 33.067052 29.313153 34.212892 29.794922 34.720703 C 29.810035 34.736214 29.835514 34.746682 29.851562 34.761719 L 33.169922 33.998047 L 38.726562 15.880859 L 25.814453 2.0097656 z M 5.3867188 12.650391 L 1.7910156 24.375 L 7.5488281 30.560547 L 7.5488281 12.650391 L 5.3867188 12.650391 z "
       transform="matrix(0.26458333,0,0,0.26458333,19.437732,44.246223)" />
  </g>
</svg>
